<svg width="19" height="19" viewBox="0 0 19 19" fill="none" xmlns="http://www.w3.org/2000/svg">
<path d="M9.8125 18.8125C8.03247 18.8125 6.29241 18.2847 4.81237 17.2957C3.33233 16.3068 2.17878 14.9012 1.49759 13.2566C0.8164 11.6121 0.63817 9.80251 0.985436 8.05669C1.3327 6.31086 2.18987 4.70721 3.44854 3.44854C4.70721 2.18987 6.31086 1.3327 8.05669 0.985433C9.80252 0.638166 11.6121 0.816396 13.2567 1.49758C14.9012 2.17877 16.3068 3.33232 17.2957 4.81237C18.2847 6.29241 18.8125 8.03247 18.8125 9.8125C18.8125 12.1994 17.8643 14.4886 16.1765 16.1765C14.4886 17.8643 12.1994 18.8125 9.8125 18.8125ZM9.8125 2.19712C8.30632 2.19712 6.83396 2.64375 5.58162 3.48054C4.32928 4.31733 3.3532 5.50669 2.77681 6.89822C2.20042 8.28975 2.04961 9.82095 2.34345 11.2982C2.63729 12.7754 3.36258 14.1324 4.42761 15.1974C5.49264 16.2624 6.84958 16.9877 8.32681 17.2816C9.80405 17.5754 11.3353 17.4246 12.7268 16.8482C14.1183 16.2718 15.3077 15.2957 16.1445 14.0434C16.9813 12.791 17.4279 11.3187 17.4279 9.8125C17.4279 7.79277 16.6256 5.85577 15.1974 4.42761C13.7692 2.99945 11.8322 2.19712 9.8125 2.19712Z" fill="black"/>
<path d="M13.6202 14.3125C13.5291 14.313 13.4388 14.2956 13.3544 14.2611C13.2701 14.2267 13.1933 14.1759 13.1287 14.1117L9.32097 10.304C9.2568 10.2393 9.20604 10.1626 9.17159 10.0783C9.13713 9.99393 9.11967 9.90361 9.1202 9.8125V4.27404C9.1202 4.09043 9.19314 3.91434 9.32297 3.7845C9.4528 3.65467 9.62889 3.58173 9.8125 3.58173C9.99612 3.58173 10.1722 3.65467 10.302 3.7845C10.4319 3.91434 10.5048 4.09043 10.5048 4.27404V9.52865L14.1117 13.1287C14.1766 13.193 14.2281 13.2696 14.2633 13.3539C14.2984 13.4383 14.3165 13.5288 14.3165 13.6202C14.3165 13.7116 14.2984 13.8021 14.2633 13.8864C14.2281 13.9708 14.1766 14.0474 14.1117 14.1117C14.047 14.1759 13.9703 14.2267 13.886 14.2611C13.8016 14.2956 13.7113 14.313 13.6202 14.3125Z" fill="black"/>
</svg>
